<?xml version="1.0" encoding="UTF-8" standalone="no"?>
<!DOCTYPE svg PUBLIC "-//W3C//DTD SVG 1.1//EN"
 "http://www.w3.org/Graphics/SVG/1.1/DTD/svg11.dtd">
<!-- Generated by graphviz version 2.40.1 (20161225.0304)
 -->
<!-- Title: MyPicture Pages: 1 -->
<svg width="2177pt" height="653pt"
 viewBox="0.00 0.00 2177.13 653.00" xmlns="http://www.w3.org/2000/svg" xmlns:xlink="http://www.w3.org/1999/xlink">
<g id="graph0" class="graph" transform="scale(1 1) rotate(0) translate(4 649)">
<title>MyPicture</title>
<polygon fill="#ffffff" stroke="transparent" points="-4,4 -4,-649 2173.1332,-649 2173.1332,4 -4,4"/>
<!-- services/client/client_executor -->
<g id="node1" class="node">
<title>services/client/client_executor</title>
<ellipse fill="none" stroke="#0000ff" cx="121" cy="-627" rx="117.7793" ry="18"/>
<text text-anchor="middle" x="121" y="-623.3" font-family="Times,serif" font-size="14.00" fill="#000000">services/client/client_executor</text>
</g>
<!-- services/server/communication_adapter -->
<g id="node3" class="node">
<title>services/server/communication_adapter</title>
<ellipse fill="none" stroke="#0000ff" cx="364" cy="-105" rx="151.3732" ry="18"/>
<text text-anchor="middle" x="364" y="-101.3" font-family="Times,serif" font-size="14.00" fill="#000000">services/server/communication_adapter</text>
</g>
<!-- services/client/client_executor&#45;&#45;services/server/communication_adapter -->
<g id="edge4" class="edge">
<title>services/client/client_executor&#45;&#45;services/server/communication_adapter</title>
<path fill="none" stroke="#a020f0" d="M66.5175,-610.9133C34.401,-597.7064 0,-575.3171 0,-540 0,-540 0,-540 0,-409.5 0,-271.2633 29.8089,-195.1462 157,-141 176.2144,-132.8203 219.6506,-124.7559 261.7976,-118.34"/>
<text text-anchor="middle" x="10" y="-362.3" font-family="Times,serif" font-size="14.00" fill="#000000">12</text>
</g>
<!-- services/common/platform -->
<g id="node10" class="node">
<title>services/common/platform</title>
<ellipse fill="none" stroke="#0000ff" cx="563" cy="-366" rx="106.6812" ry="18"/>
<text text-anchor="middle" x="563" y="-362.3" font-family="Times,serif" font-size="14.00" fill="#000000">services/common/platform</text>
</g>
<!-- services/client/client_executor&#45;&#45;services/common/platform -->
<g id="edge9" class="edge">
<title>services/client/client_executor&#45;&#45;services/common/platform</title>
<path fill="none" stroke="#00ff00" d="M210.415,-615.1971C313.7927,-600.8207 472.5778,-576.2038 494,-558 547.443,-512.5861 559.4926,-422.5664 562.2092,-384.1073"/>
<text text-anchor="middle" x="543.5" y="-492.8" font-family="Times,serif" font-size="14.00" fill="#000000">4</text>
</g>
<!-- services/common/utils -->
<g id="node11" class="node">
<title>services/common/utils</title>
<ellipse fill="none" stroke="#0000ff" cx="245" cy="-192" rx="90.9839" ry="18"/>
<text text-anchor="middle" x="245" y="-188.3" font-family="Times,serif" font-size="14.00" fill="#000000">services/common/utils</text>
</g>
<!-- services/client/client_executor&#45;&#45;services/common/utils -->
<g id="edge3" class="edge">
<title>services/client/client_executor&#45;&#45;services/common/utils</title>
<path fill="none" stroke="#00ff00" d="M90.2303,-609.4256C68.0484,-594.2255 42,-569.9911 42,-540 42,-540 42,-540 42,-409.5 42,-357.2024 169.0183,-251.5503 222.1079,-209.675"/>
<text text-anchor="middle" x="45.5" y="-405.8" font-family="Times,serif" font-size="14.00" fill="#000000">4</text>
</g>
<!-- services/client/communication_adapter -->
<g id="node12" class="node">
<title>services/client/communication_adapter</title>
<ellipse fill="none" stroke="#0000ff" cx="336" cy="-540" rx="149.4735" ry="18"/>
<text text-anchor="middle" x="336" y="-536.3" font-family="Times,serif" font-size="14.00" fill="#000000">services/client/communication_adapter</text>
</g>
<!-- services/client/client_executor&#45;&#45;services/client/communication_adapter -->
<g id="edge8" class="edge">
<title>services/client/client_executor&#45;&#45;services/client/communication_adapter</title>
<path fill="none" stroke="#ff0000" d="M162.7091,-610.1224C200.3207,-594.9028 255.3909,-572.6186 293.3041,-557.277"/>
<text text-anchor="middle" x="249" y="-579.8" font-family="Times,serif" font-size="14.00" fill="#000000">24</text>
</g>
<!-- services/common/protocol -->
<g id="node15" class="node">
<title>services/common/protocol</title>
<ellipse fill="none" stroke="#0000ff" cx="430" cy="-279" rx="104.7816" ry="18"/>
<text text-anchor="middle" x="430" y="-275.3" font-family="Times,serif" font-size="14.00" fill="#000000">services/common/protocol</text>
</g>
<!-- services/client/client_executor&#45;&#45;services/common/protocol -->
<g id="edge2" class="edge">
<title>services/client/client_executor&#45;&#45;services/common/protocol</title>
<path fill="none" stroke="#ff0000" d="M123.2344,-608.7075C126.8696,-581.868 135.1904,-530.5039 150,-489 174.5913,-420.0831 185.2236,-401.6338 235,-348 251.3877,-330.3424 256.2409,-325.3386 278,-315 300.9024,-304.1181 327.3516,-296.3828 351.7015,-290.9473"/>
<text text-anchor="middle" x="179" y="-449.3" font-family="Times,serif" font-size="14.00" fill="#000000">22</text>
</g>
<!-- README_zh.md -->
<g id="node2" class="node">
<title>README_zh.md</title>
<ellipse fill="none" stroke="#0000ff" cx="1589" cy="-540" rx="75.2868" ry="18"/>
<text text-anchor="middle" x="1589" y="-536.3" font-family="Times,serif" font-size="14.00" fill="#000000">README_zh.md</text>
</g>
<!-- services/server/plugin_manager -->
<g id="node7" class="node">
<title>services/server/plugin_manager</title>
<ellipse fill="none" stroke="#0000ff" cx="543" cy="-18" rx="122.6784" ry="18"/>
<text text-anchor="middle" x="543" y="-14.3" font-family="Times,serif" font-size="14.00" fill="#000000">services/server/plugin_manager</text>
</g>
<!-- services/server/communication_adapter&#45;&#45;services/server/plugin_manager -->
<g id="edge37" class="edge">
<title>services/server/communication_adapter&#45;&#45;services/server/plugin_manager</title>
<path fill="none" stroke="#a020f0" d="M400.2233,-87.3943C431.4833,-72.2008 476.3767,-50.3812 507.4414,-35.2827"/>
<text text-anchor="middle" x="472" y="-57.8" font-family="Times,serif" font-size="14.00" fill="#000000">14</text>
</g>
<!-- services/client/algorithm_sdk -->
<g id="node4" class="node">
<title>services/client/algorithm_sdk</title>
<ellipse fill="none" stroke="#0000ff" cx="1044" cy="-279" rx="114.2798" ry="18"/>
<text text-anchor="middle" x="1044" y="-275.3" font-family="Times,serif" font-size="14.00" fill="#000000">services/client/algorithm_sdk</text>
</g>
<!-- services/server/plugin -->
<g id="node14" class="node">
<title>services/server/plugin</title>
<ellipse fill="none" stroke="#0000ff" cx="707" cy="-105" rx="87.9851" ry="18"/>
<text text-anchor="middle" x="707" y="-101.3" font-family="Times,serif" font-size="14.00" fill="#000000">services/server/plugin</text>
</g>
<!-- services/client/algorithm_sdk&#45;&#45;services/server/plugin -->
<g id="edge51" class="edge">
<title>services/client/algorithm_sdk&#45;&#45;services/server/plugin</title>
<path fill="none" stroke="#ff0000" d="M1031.4352,-261.0042C1014.1555,-237.5789 980.8598,-196.9332 943,-174 913.1519,-155.9198 825.1653,-132.789 765.4781,-118.4339"/>
<text text-anchor="middle" x="995" y="-188.3" font-family="Times,serif" font-size="14.00" fill="#000000">49</text>
</g>
<!-- services/server/BUILD.gn -->
<g id="node18" class="node">
<title>services/server/BUILD.gn</title>
<ellipse fill="none" stroke="#0000ff" cx="831" cy="-192" rx="103.1819" ry="18"/>
<text text-anchor="middle" x="831" y="-188.3" font-family="Times,serif" font-size="14.00" fill="#000000">services/server/BUILD.gn</text>
</g>
<!-- services/client/algorithm_sdk&#45;&#45;services/server/BUILD.gn -->
<g id="edge50" class="edge">
<title>services/client/algorithm_sdk&#45;&#45;services/server/BUILD.gn</title>
<path fill="none" stroke="#00ff00" d="M1002.6789,-262.1224C964.9333,-246.7051 909.4392,-224.0386 871.8441,-208.6828"/>
<text text-anchor="middle" x="954.5" y="-231.8" font-family="Times,serif" font-size="14.00" fill="#000000">1</text>
</g>
<!-- interfaces/kits/cv -->
<g id="node5" class="node">
<title>interfaces/kits/cv</title>
<ellipse fill="none" stroke="#0000ff" cx="650" cy="-453" rx="70.6878" ry="18"/>
<text text-anchor="middle" x="650" y="-449.3" font-family="Times,serif" font-size="14.00" fill="#000000">interfaces/kits/cv</text>
</g>
<!-- interfaces/kits/cv&#45;&#45;services/common/platform -->
<g id="edge46" class="edge">
<title>interfaces/kits/cv&#45;&#45;services/common/platform</title>
<path fill="none" stroke="#a020f0" d="M632.3943,-435.3943C617.3994,-420.3994 595.9505,-398.9505 580.8782,-383.8782"/>
<text text-anchor="middle" x="615.5" y="-405.8" font-family="Times,serif" font-size="14.00" fill="#000000">8</text>
</g>
<!-- interfaces/kits/cv&#45;&#45;services/server/plugin -->
<g id="edge47" class="edge">
<title>interfaces/kits/cv&#45;&#45;services/server/plugin</title>
<path fill="none" stroke="#a020f0" d="M659.2868,-435.0632C665.9095,-421.4283 674.4217,-402.0088 679,-384 703.4083,-287.9885 706.7044,-168.32 707.0298,-123.2751"/>
<text text-anchor="middle" x="703.5" y="-275.3" font-family="Times,serif" font-size="14.00" fill="#000000">6</text>
</g>
<!-- CMakeLists.txt -->
<g id="node6" class="node">
<title>CMakeLists.txt</title>
<ellipse fill="none" stroke="#0000ff" cx="1340" cy="-627" rx="65.7887" ry="18"/>
<text text-anchor="middle" x="1340" y="-623.3" font-family="Times,serif" font-size="14.00" fill="#000000">CMakeLists.txt</text>
</g>
<!-- services/server/CMakeLists.txt -->
<g id="node9" class="node">
<title>services/server/CMakeLists.txt</title>
<ellipse fill="none" stroke="#0000ff" cx="1340" cy="-366" rx="120.4791" ry="18"/>
<text text-anchor="middle" x="1340" y="-362.3" font-family="Times,serif" font-size="14.00" fill="#000000">services/server/CMakeLists.txt</text>
</g>
<!-- CMakeLists.txt&#45;&#45;services/server/CMakeLists.txt -->
<g id="edge40" class="edge">
<title>CMakeLists.txt&#45;&#45;services/server/CMakeLists.txt</title>
<path fill="none" stroke="#00ff00" d="M1387.6469,-614.4999C1416.0749,-604.3185 1449.8763,-586.7913 1467,-558 1475.1788,-544.2484 1472.3605,-537.0753 1467,-522 1446.0561,-463.0999 1392.3097,-410.2984 1361.8728,-383.8637"/>
<text text-anchor="middle" x="1462.5" y="-492.8" font-family="Times,serif" font-size="14.00" fill="#000000">2</text>
</g>
<!-- services/client/CMakeLists.txt -->
<g id="node16" class="node">
<title>services/client/CMakeLists.txt</title>
<ellipse fill="none" stroke="#0000ff" cx="1340" cy="-540" rx="118.0794" ry="18"/>
<text text-anchor="middle" x="1340" y="-536.3" font-family="Times,serif" font-size="14.00" fill="#000000">services/client/CMakeLists.txt</text>
</g>
<!-- CMakeLists.txt&#45;&#45;services/client/CMakeLists.txt -->
<g id="edge38" class="edge">
<title>CMakeLists.txt&#45;&#45;services/client/CMakeLists.txt</title>
<path fill="none" stroke="#00ff00" d="M1340,-608.9735C1340,-594.0422 1340,-572.9283 1340,-558.0034"/>
<text text-anchor="middle" x="1343.5" y="-579.8" font-family="Times,serif" font-size="14.00" fill="#000000">2</text>
</g>
<!-- services/common/CMakeLists.txt -->
<g id="node20" class="node">
<title>services/common/CMakeLists.txt</title>
<ellipse fill="none" stroke="#0000ff" cx="946" cy="-453" rx="130.777" ry="18"/>
<text text-anchor="middle" x="946" y="-449.3" font-family="Times,serif" font-size="14.00" fill="#000000">services/common/CMakeLists.txt</text>
</g>
<!-- CMakeLists.txt&#45;&#45;services/common/CMakeLists.txt -->
<g id="edge39" class="edge">
<title>CMakeLists.txt&#45;&#45;services/common/CMakeLists.txt</title>
<path fill="none" stroke="#00ff00" d="M1305.0351,-611.5587C1231.5852,-579.1214 1061.7139,-504.1021 984.93,-470.1924"/>
<text text-anchor="middle" x="1186.5" y="-536.3" font-family="Times,serif" font-size="14.00" fill="#000000">2</text>
</g>
<!-- services/client/BUILD.gn -->
<g id="node8" class="node">
<title>services/client/BUILD.gn</title>
<ellipse fill="none" stroke="#0000ff" cx="589" cy="-627" rx="101.2821" ry="18"/>
<text text-anchor="middle" x="589" y="-623.3" font-family="Times,serif" font-size="14.00" fill="#000000">services/client/BUILD.gn</text>
</g>
<!-- services/client/BUILD.gn&#45;&#45;services/server/communication_adapter -->
<g id="edge22" class="edge">
<title>services/client/BUILD.gn&#45;&#45;services/server/communication_adapter</title>
<path fill="none" stroke="#a020f0" d="M489.7245,-623.0352C382.5106,-616.6228 221.2142,-600.0895 178,-558 138.1,-519.1385 166.0634,-489.3755 154,-435 142.8403,-384.6977 126,-374.0254 126,-322.5 126,-322.5 126,-322.5 126,-192 126,-158.5649 209.9043,-134.1631 278.0765,-119.8547"/>
<text text-anchor="middle" x="145" y="-362.3" font-family="Times,serif" font-size="14.00" fill="#000000">14</text>
</g>
<!-- services/client/BUILD.gn&#45;&#45;services/client/algorithm_sdk -->
<g id="edge48" class="edge">
<title>services/client/BUILD.gn&#45;&#45;services/client/algorithm_sdk</title>
<path fill="none" stroke="#00ff00" d="M680.407,-619.112C725.2194,-613.7526 779.61,-605.0047 827,-591 890.7718,-572.1541 1067.0745,-500.7458 1086,-471 1121.7173,-414.8622 1078.6525,-332.8455 1056.1014,-296.9468"/>
<text text-anchor="middle" x="1102.5" y="-449.3" font-family="Times,serif" font-size="14.00" fill="#000000">1</text>
</g>
<!-- services/client/BUILD.gn&#45;&#45;services/server/plugin_manager -->
<g id="edge23" class="edge">
<title>services/client/BUILD.gn&#45;&#45;services/server/plugin_manager</title>
<path fill="none" stroke="#00ff00" d="M489.4567,-623.1729C393.2483,-618.4906 254.8197,-608.8799 204,-591 178.8833,-582.1632 169.5051,-579.6455 154,-558 60.9041,-428.0359 83.3887,-368.5618 63,-210 55.874,-154.5816 45.9779,-122.6522 89,-87 138.6459,-45.8587 306.8,-29.1606 423.8874,-22.4417"/>
<text text-anchor="middle" x="77.5" y="-318.8" font-family="Times,serif" font-size="14.00" fill="#000000">2</text>
</g>
<!-- services/client/BUILD.gn&#45;&#45;services/common/platform -->
<g id="edge19" class="edge">
<title>services/client/BUILD.gn&#45;&#45;services/common/platform</title>
<path fill="none" stroke="#a020f0" d="M586.4534,-608.7822C582.4626,-579.7039 574.7062,-520.9805 570,-471 567.1398,-440.6241 565.0324,-405.1962 563.9128,-384.2342"/>
<text text-anchor="middle" x="577.5" y="-492.8" font-family="Times,serif" font-size="14.00" fill="#000000">6</text>
</g>
<!-- services/client/BUILD.gn&#45;&#45;services/client/communication_adapter -->
<g id="edge17" class="edge">
<title>services/client/BUILD.gn&#45;&#45;services/client/communication_adapter</title>
<path fill="none" stroke="#00ff00" d="M542.3011,-610.9415C497.754,-595.6229 430.8913,-572.6306 385.4521,-557.0053"/>
<text text-anchor="middle" x="481.5" y="-579.8" font-family="Times,serif" font-size="14.00" fill="#000000">4</text>
</g>
<!-- services/client/BUILD.gn&#45;&#45;services/server/plugin -->
<g id="edge49" class="edge">
<title>services/client/BUILD.gn&#45;&#45;services/server/plugin</title>
<path fill="none" stroke="#00ff00" d="M687.3414,-622.5428C846.9416,-614.2906 1147.871,-594.0983 1180,-558 1185.4421,-551.8856 1204.238,-320.0576 1167,-261 1095.8751,-148.1994 1021.6248,-172.3071 892,-141 888.9536,-140.2642 823.2577,-127.5084 771.0121,-117.3873"/>
<text text-anchor="middle" x="1193.5" y="-362.3" font-family="Times,serif" font-size="14.00" fill="#000000">1</text>
</g>
<!-- services/client/BUILD.gn&#45;&#45;services/common/protocol -->
<g id="edge20" class="edge">
<title>services/client/BUILD.gn&#45;&#45;services/common/protocol</title>
<path fill="none" stroke="#00ff00" d="M574.3155,-609.1388C556.2851,-587.6046 524.351,-550.7283 494,-522 467.8369,-497.2357 446.5962,-503.4736 431,-471 403.0034,-412.7069 416.8649,-332.5026 425.2212,-297.0728"/>
<text text-anchor="middle" x="434.5" y="-449.3" font-family="Times,serif" font-size="14.00" fill="#000000">2</text>
</g>
<!-- services/client/BUILD.gn&#45;&#45;services/server/BUILD.gn -->
<g id="edge21" class="edge">
<title>services/client/BUILD.gn&#45;&#45;services/server/BUILD.gn</title>
<path fill="none" stroke="#00ff00" d="M650.0221,-612.5816C708.1993,-597.0087 787,-570.3192 787,-540 787,-540 787,-540 787,-409.5 787,-357.1361 805.4217,-346.6703 822,-297 829.8496,-273.4819 832.8637,-267.5943 836,-243 837.373,-232.2333 836.3018,-220.1459 834.8042,-210.4419"/>
<text text-anchor="middle" x="790.5" y="-405.8" font-family="Times,serif" font-size="14.00" fill="#000000">3</text>
</g>
<!-- services/client/BUILD.gn&#45;&#45;services/common/CMakeLists.txt -->
<g id="edge18" class="edge">
<title>services/client/BUILD.gn&#45;&#45;services/common/CMakeLists.txt</title>
<path fill="none" stroke="#00ff00" d="M675.3592,-617.5031C723.9263,-611.158 779.0957,-601.9738 801,-591 859.1027,-561.8912 909.6908,-501.6739 932.7399,-471.3276"/>
<text text-anchor="middle" x="892.5" y="-536.3" font-family="Times,serif" font-size="14.00" fill="#000000">2</text>
</g>
<!-- services/common/platform&#45;&#45;services/server/communication_adapter -->
<g id="edge14" class="edge">
<title>services/common/platform&#45;&#45;services/server/communication_adapter</title>
<path fill="none" stroke="#ff0000" d="M563.286,-347.6767C562.8529,-325.6877 559.5897,-288.3635 544,-261 507.9717,-197.7618 436.4042,-147.7418 395.1929,-122.6548"/>
<text text-anchor="middle" x="540" y="-231.8" font-family="Times,serif" font-size="14.00" fill="#000000">52</text>
</g>
<!-- services/common/platform&#45;&#45;services/server/plugin_manager -->
<g id="edge32" class="edge">
<title>services/common/platform&#45;&#45;services/server/plugin_manager</title>
<path fill="none" stroke="#a020f0" d="M570.4089,-347.9244C572.4884,-342.2648 574.5697,-335.9437 576,-330 585.1187,-292.1072 584.5507,-281.8975 587,-243 591.9151,-164.9429 563.361,-74.151 549.8223,-36.1636"/>
<text text-anchor="middle" x="591.5" y="-188.3" font-family="Times,serif" font-size="14.00" fill="#000000">6</text>
</g>
<!-- services/common/platform&#45;&#45;services/server/plugin -->
<g id="edge45" class="edge">
<title>services/common/platform&#45;&#45;services/server/plugin</title>
<path fill="none" stroke="#ff0000" d="M594.4681,-348.745C601.9595,-343.4975 609.3958,-337.1867 615,-330 670.1789,-259.2395 647.4787,-222.0423 686,-141 688.8577,-134.9878 692.3736,-128.6475 695.7056,-122.9913"/>
<text text-anchor="middle" x="666" y="-231.8" font-family="Times,serif" font-size="14.00" fill="#000000">56</text>
</g>
<!-- services/common/platform&#45;&#45;services/common/protocol -->
<g id="edge13" class="edge">
<title>services/common/platform&#45;&#45;services/common/protocol</title>
<path fill="none" stroke="#ff0000" d="M536.0855,-348.3943C513.0106,-333.3001 479.9378,-311.6661 456.8745,-296.5796"/>
<text text-anchor="middle" x="512" y="-318.8" font-family="Times,serif" font-size="14.00" fill="#000000">22</text>
</g>
<!-- services/common/platform&#45;&#45;services/server/BUILD.gn -->
<g id="edge31" class="edge">
<title>services/common/platform&#45;&#45;services/server/BUILD.gn</title>
<path fill="none" stroke="#a020f0" d="M612.299,-350.0222C627.5909,-344.4057 644.2842,-337.5816 659,-330 682.3405,-317.9749 687.0925,-312.8826 708,-297 746.0074,-268.1273 787.7766,-231.2983 811.5511,-209.8123"/>
<text text-anchor="middle" x="756.5" y="-275.3" font-family="Times,serif" font-size="14.00" fill="#000000">6</text>
</g>
<!-- services/common/utils&#45;&#45;services/server/communication_adapter -->
<g id="edge7" class="edge">
<title>services/common/utils&#45;&#45;services/server/communication_adapter</title>
<path fill="none" stroke="#00ff00" d="M268.7954,-174.6033C289.2791,-159.6279 318.7216,-138.1027 339.4277,-122.9646"/>
<text text-anchor="middle" x="315.5" y="-144.8" font-family="Times,serif" font-size="14.00" fill="#000000">3</text>
</g>
<!-- services/client/communication_adapter&#45;&#45;services/server/communication_adapter -->
<g id="edge12" class="edge">
<title>services/client/communication_adapter&#45;&#45;services/server/communication_adapter</title>
<path fill="none" stroke="#ff0000" d="M322.5784,-522.04C311.2971,-505.1378 297,-478.6561 297,-453 297,-453 297,-453 297,-322.5 297,-278.1573 305.7865,-265.781 329,-228 334.6034,-218.8802 340.317,-219.6249 345,-210 358.6974,-181.8478 362.5903,-145.1056 363.6542,-123.3839"/>
<text text-anchor="middle" x="304" y="-318.8" font-family="Times,serif" font-size="14.00" fill="#000000">64</text>
</g>
<!-- services/client/communication_adapter&#45;&#45;services/server/plugin_manager -->
<g id="edge26" class="edge">
<title>services/client/communication_adapter&#45;&#45;services/server/plugin_manager</title>
<path fill="none" stroke="#00ff00" d="M298.117,-522.5646C288.9873,-517.3549 279.6659,-511.1071 272,-504 259.0735,-492.0158 259.4548,-485.8769 250,-471 205.4209,-400.8561 27.8605,-210.1274 74,-141 114.89,-79.7376 319.0396,-44.7544 444.1344,-28.7498"/>
<text text-anchor="middle" x="125.5" y="-275.3" font-family="Times,serif" font-size="14.00" fill="#000000">4</text>
</g>
<!-- services/client/communication_adapter&#45;&#45;services/common/platform -->
<g id="edge10" class="edge">
<title>services/client/communication_adapter&#45;&#45;services/common/platform</title>
<path fill="none" stroke="#ff0000" d="M366.816,-522.3354C388.1224,-509.4286 416.5599,-490.7868 439,-471 469.4819,-444.1223 467.4953,-427.6711 499,-402 507.6969,-394.9135 517.9772,-388.445 527.7246,-383.0071"/>
<text text-anchor="middle" x="477" y="-449.3" font-family="Times,serif" font-size="14.00" fill="#000000">26</text>
</g>
<!-- services/client/communication_adapter&#45;&#45;services/common/utils -->
<g id="edge16" class="edge">
<title>services/client/communication_adapter&#45;&#45;services/common/utils</title>
<path fill="none" stroke="#00ff00" d="M300.7685,-522.339C293.8612,-517.3222 287.4018,-511.2173 283,-504 223.7592,-406.868 235.8094,-260.9948 242.3207,-210.2061"/>
<text text-anchor="middle" x="246.5" y="-362.3" font-family="Times,serif" font-size="14.00" fill="#000000">3</text>
</g>
<!-- services/client/communication_adapter&#45;&#45;services/common/protocol -->
<g id="edge11" class="edge">
<title>services/client/communication_adapter&#45;&#45;services/common/protocol</title>
<path fill="none" stroke="#ff0000" d="M341.7542,-521.7272C354.026,-483.1595 384.0956,-390.7573 414,-315 416.3103,-309.1472 419.0265,-302.8516 421.5585,-297.1875"/>
<text text-anchor="middle" x="389" y="-405.8" font-family="Times,serif" font-size="14.00" fill="#000000">38</text>
</g>
<!-- services/client/communication_adapter&#45;&#45;services/server/BUILD.gn -->
<g id="edge25" class="edge">
<title>services/client/communication_adapter&#45;&#45;services/server/BUILD.gn</title>
<path fill="none" stroke="#00ff00" d="M470.2538,-532.0588C569.2762,-523.4149 692.9518,-505.856 730,-471 771.4855,-431.9692 741.5792,-399.4594 766,-348 777.7864,-323.1638 789.2936,-321.8739 801,-297 814.6436,-268.01 823.3476,-231.5362 827.6878,-210.0936"/>
<text text-anchor="middle" x="769.5" y="-362.3" font-family="Times,serif" font-size="14.00" fill="#000000">4</text>
</g>
<!-- services/client/communication_adapter&#45;&#45;services/common/CMakeLists.txt -->
<g id="edge24" class="edge">
<title>services/client/communication_adapter&#45;&#45;services/common/CMakeLists.txt</title>
<path fill="none" stroke="#00ff00" d="M474.6828,-533.1776C553.7045,-527.9326 654.3427,-518.9614 743,-504 793.7018,-495.4438 850.3739,-480.765 890.9262,-469.3459"/>
<text text-anchor="middle" x="814.5" y="-492.8" font-family="Times,serif" font-size="14.00" fill="#000000">4</text>
</g>
<!-- interfaces/kits/asr -->
<g id="node13" class="node">
<title>interfaces/kits/asr</title>
<ellipse fill="none" stroke="#0000ff" cx="1742" cy="-627" rx="72.5877" ry="18"/>
<text text-anchor="middle" x="1742" y="-623.3" font-family="Times,serif" font-size="14.00" fill="#000000">interfaces/kits/asr</text>
</g>
<!-- services/common/protocol&#45;&#45;services/server/communication_adapter -->
<g id="edge6" class="edge">
<title>services/common/protocol&#45;&#45;services/server/communication_adapter</title>
<path fill="none" stroke="#ff0000" d="M423.1639,-260.6722C413.28,-234.2159 394.3854,-183.7997 378,-141 375.7942,-135.2383 373.3657,-128.9684 371.1595,-123.2997"/>
<text text-anchor="middle" x="411" y="-188.3" font-family="Times,serif" font-size="14.00" fill="#000000">44</text>
</g>
<!-- services/common/protocol&#45;&#45;services/server/plugin_manager -->
<g id="edge34" class="edge">
<title>services/common/protocol&#45;&#45;services/server/plugin_manager</title>
<path fill="none" stroke="#a020f0" d="M443.9316,-260.9288C464.7486,-232.9772 503.6916,-176.8462 524,-123 534.9828,-93.8799 539.7333,-57.7602 541.7015,-36.3689"/>
<text text-anchor="middle" x="520.5" y="-144.8" font-family="Times,serif" font-size="14.00" fill="#000000">5</text>
</g>
<!-- services/common/protocol&#45;&#45;services/common/utils -->
<g id="edge5" class="edge">
<title>services/common/protocol&#45;&#45;services/common/utils</title>
<path fill="none" stroke="#a020f0" d="M393.891,-262.019C361.0832,-246.5905 312.971,-223.9648 280.3895,-208.6426"/>
<text text-anchor="middle" x="352.5" y="-231.8" font-family="Times,serif" font-size="14.00" fill="#000000">9</text>
</g>
<!-- services/common/protocol&#45;&#45;services/server/BUILD.gn -->
<g id="edge33" class="edge">
<title>services/common/protocol&#45;&#45;services/server/BUILD.gn</title>
<path fill="none" stroke="#00ff00" d="M486.066,-263.6472C526.2445,-252.9214 581.7399,-238.669 631,-228 671.8597,-219.1504 717.7458,-210.78 755.2501,-204.3413"/>
<text text-anchor="middle" x="634.5" y="-231.8" font-family="Times,serif" font-size="14.00" fill="#000000">2</text>
</g>
<!-- services/client/CMakeLists.txt&#45;&#45;services/server/CMakeLists.txt -->
<g id="edge42" class="edge">
<title>services/client/CMakeLists.txt&#45;&#45;services/server/CMakeLists.txt</title>
<path fill="none" stroke="#00ff00" d="M1340,-521.7078C1340,-488.2024 1340,-417.3695 1340,-384.0471"/>
<text text-anchor="middle" x="1343.5" y="-449.3" font-family="Times,serif" font-size="14.00" fill="#000000">3</text>
</g>
<!-- services/client/CMakeLists.txt&#45;&#45;services/common/CMakeLists.txt -->
<g id="edge41" class="edge">
<title>services/client/CMakeLists.txt&#45;&#45;services/common/CMakeLists.txt</title>
<path fill="none" stroke="#00ff00" d="M1292.2471,-523.4791C1259.1065,-512.4934 1213.7629,-498.4085 1173,-489 1130.4263,-479.1736 1082.742,-471.1669 1042.108,-465.2211"/>
<text text-anchor="middle" x="1232.5" y="-492.8" font-family="Times,serif" font-size="14.00" fill="#000000">3</text>
</g>
<!-- .gitee/ISSUE_TEMPLATE.zh&#45;CN.md -->
<g id="node17" class="node">
<title>.gitee/ISSUE_TEMPLATE.zh&#45;CN.md</title>
<ellipse fill="none" stroke="#0000ff" cx="1980" cy="-627" rx="147.5738" ry="18"/>
<text text-anchor="middle" x="1980" y="-623.3" font-family="Times,serif" font-size="14.00" fill="#000000">.gitee/ISSUE_TEMPLATE.zh&#45;CN.md</text>
</g>
<!-- .gitee/PULL_REQUEST_TEMPLATE.zh&#45;CN.md -->
<g id="node21" class="node">
<title>.gitee/PULL_REQUEST_TEMPLATE.zh&#45;CN.md</title>
<ellipse fill="none" stroke="#0000ff" cx="1980" cy="-540" rx="189.2665" ry="18"/>
<text text-anchor="middle" x="1980" y="-536.3" font-family="Times,serif" font-size="14.00" fill="#000000">.gitee/PULL_REQUEST_TEMPLATE.zh&#45;CN.md</text>
</g>
<!-- .gitee/ISSUE_TEMPLATE.zh&#45;CN.md&#45;&#45;.gitee/PULL_REQUEST_TEMPLATE.zh&#45;CN.md -->
<g id="edge44" class="edge">
<title>.gitee/ISSUE_TEMPLATE.zh&#45;CN.md&#45;&#45;.gitee/PULL_REQUEST_TEMPLATE.zh&#45;CN.md</title>
<path fill="none" stroke="#00ff00" d="M1980,-608.9735C1980,-594.0422 1980,-572.9283 1980,-558.0034"/>
<text text-anchor="middle" x="1983.5" y="-579.8" font-family="Times,serif" font-size="14.00" fill="#000000">2</text>
</g>
<!-- services/server/BUILD.gn&#45;&#45;services/server/communication_adapter -->
<g id="edge35" class="edge">
<title>services/server/BUILD.gn&#45;&#45;services/server/communication_adapter</title>
<path fill="none" stroke="#a020f0" d="M765.3242,-178.0759C714.5389,-167.4623 642.4258,-152.7247 579,-141 538.249,-133.4669 493.0235,-125.7917 454.607,-119.4742"/>
<text text-anchor="middle" x="663" y="-144.8" font-family="Times,serif" font-size="14.00" fill="#000000">14</text>
</g>
<!-- services/server/BUILD.gn&#45;&#45;services/server/plugin_manager -->
<g id="edge36" class="edge">
<title>services/server/BUILD.gn&#45;&#45;services/server/plugin_manager</title>
<path fill="none" stroke="#00ff00" d="M831.568,-173.7346C831.2588,-150.3932 827.0797,-110.2364 804,-87 779.3106,-62.143 694.4468,-42.7866 628.1104,-30.9835"/>
<text text-anchor="middle" x="827.5" y="-101.3" font-family="Times,serif" font-size="14.00" fill="#000000">2</text>
</g>
<!-- services/server/BUILD.gn&#45;&#45;services/server/plugin -->
<g id="edge52" class="edge">
<title>services/server/BUILD.gn&#45;&#45;services/server/plugin</title>
<path fill="none" stroke="#00ff00" d="M807.2029,-174.2846C793.7417,-164.359 776.5415,-151.835 761,-141 752.0344,-134.7495 742.1103,-128.0672 733.2412,-122.1777"/>
<text text-anchor="middle" x="784.5" y="-144.8" font-family="Times,serif" font-size="14.00" fill="#000000">1</text>
</g>
<!-- README.md -->
<g id="node19" class="node">
<title>README.md</title>
<ellipse fill="none" stroke="#0000ff" cx="1589" cy="-627" rx="62.2891" ry="18"/>
<text text-anchor="middle" x="1589" y="-623.3" font-family="Times,serif" font-size="14.00" fill="#000000">README.md</text>
</g>
<!-- README.md&#45;&#45;README_zh.md -->
<g id="edge1" class="edge">
<title>README.md&#45;&#45;README_zh.md</title>
<path fill="none" stroke="#a020f0" d="M1589,-608.9735C1589,-594.0422 1589,-572.9283 1589,-558.0034"/>
<text text-anchor="middle" x="1592.5" y="-579.8" font-family="Times,serif" font-size="14.00" fill="#000000">5</text>
</g>
<!-- services/common/CMakeLists.txt&#45;&#45;services/server/communication_adapter -->
<g id="edge29" class="edge">
<title>services/common/CMakeLists.txt&#45;&#45;services/server/communication_adapter</title>
<path fill="none" stroke="#a020f0" d="M931.9719,-435.0553C902.9834,-398.8046 833.1293,-315.6511 761,-261 668.1574,-190.6548 638.3631,-178.2584 528,-141 502.7289,-132.4685 474.5716,-125.4367 448.8197,-119.9224"/>
<text text-anchor="middle" x="811" y="-275.3" font-family="Times,serif" font-size="14.00" fill="#000000">14</text>
</g>
<!-- services/common/CMakeLists.txt&#45;&#45;services/server/plugin_manager -->
<g id="edge30" class="edge">
<title>services/common/CMakeLists.txt&#45;&#45;services/server/plugin_manager</title>
<path fill="none" stroke="#00ff00" d="M1002.9283,-436.7193C1084.2608,-409.5638 1224,-346.7234 1224,-235.5 1224,-235.5 1224,-235.5 1224,-105 1224,-49.2042 859.6567,-28.4855 663.9644,-21.3813"/>
<text text-anchor="middle" x="1227.5" y="-231.8" font-family="Times,serif" font-size="14.00" fill="#000000">2</text>
</g>
<!-- services/common/CMakeLists.txt&#45;&#45;services/server/CMakeLists.txt -->
<g id="edge43" class="edge">
<title>services/common/CMakeLists.txt&#45;&#45;services/server/CMakeLists.txt</title>
<path fill="none" stroke="#00ff00" d="M1037.6215,-440.0923C1076.2133,-434.0454 1121.4863,-426.1488 1162,-417 1205.1154,-407.2637 1253.266,-393.2735 1288.6047,-382.4078"/>
<text text-anchor="middle" x="1225.5" y="-405.8" font-family="Times,serif" font-size="14.00" fill="#000000">4</text>
</g>
<!-- services/common/CMakeLists.txt&#45;&#45;services/common/platform -->
<g id="edge15" class="edge">
<title>services/common/CMakeLists.txt&#45;&#45;services/common/platform</title>
<path fill="none" stroke="#a020f0" d="M865.2477,-438.7569C831.9353,-432.5648 793.0057,-424.92 758,-417 710.559,-406.2665 657.147,-392.1533 618.2345,-381.495"/>
<text text-anchor="middle" x="761.5" y="-405.8" font-family="Times,serif" font-size="14.00" fill="#000000">8</text>
</g>
<!-- services/common/CMakeLists.txt&#45;&#45;services/common/protocol -->
<g id="edge27" class="edge">
<title>services/common/CMakeLists.txt&#45;&#45;services/common/protocol</title>
<path fill="none" stroke="#00ff00" d="M895.6724,-436.1861C881.8114,-430.7906 867.0166,-424.2958 854,-417 809.7244,-392.1834 809.2087,-368.9988 763,-348 686.5395,-313.2537 592.2338,-295.8173 523.5229,-287.1822"/>
<text text-anchor="middle" x="815.5" y="-362.3" font-family="Times,serif" font-size="14.00" fill="#000000">2</text>
</g>
<!-- services/common/CMakeLists.txt&#45;&#45;services/server/BUILD.gn -->
<g id="edge28" class="edge">
<title>services/common/CMakeLists.txt&#45;&#45;services/server/BUILD.gn</title>
<path fill="none" stroke="#00ff00" d="M944.1474,-434.7748C939.2837,-394.2949 923.17,-295.1752 877,-228 872.175,-220.9798 865.5637,-214.6906 858.858,-209.4086"/>
<text text-anchor="middle" x="926.5" y="-318.8" font-family="Times,serif" font-size="14.00" fill="#000000">2</text>
</g>
</g>
</svg>
