<?xml version="1.0" encoding="UTF-8" standalone="no"?>
<!DOCTYPE svg PUBLIC "-//W3C//DTD SVG 1.1//EN"
 "http://www.w3.org/Graphics/SVG/1.1/DTD/svg11.dtd">
<!-- Generated by graphviz version 2.40.1 (20161225.0304)
 -->
<!-- Title: MyPicture Pages: 1 -->
<svg width="2160pt" height="653pt"
 viewBox="0.00 0.00 2159.51 653.00" xmlns="http://www.w3.org/2000/svg" xmlns:xlink="http://www.w3.org/1999/xlink">
<g id="graph0" class="graph" transform="scale(1 1) rotate(0) translate(4 649)">
<title>MyPicture</title>
<polygon fill="#ffffff" stroke="transparent" points="-4,4 -4,-649 2155.5136,-649 2155.5136,4 -4,4"/>
<!-- services/client/communication_adapter -->
<g id="node1" class="node">
<title>services/client/communication_adapter</title>
<ellipse fill="none" stroke="#0000ff" cx="1160.1203" cy="-540" rx="149.4735" ry="18"/>
<text text-anchor="middle" x="1160.1203" y="-536.3" font-family="Times,serif" font-size="14.00" fill="#000000">services/client/communication_adapter</text>
</g>
<!-- services/common/CMakeLists.txt -->
<g id="node4" class="node">
<title>services/common/CMakeLists.txt</title>
<ellipse fill="none" stroke="#0000ff" cx="684.1203" cy="-453" rx="130.777" ry="18"/>
<text text-anchor="middle" x="684.1203" y="-449.3" font-family="Times,serif" font-size="14.00" fill="#000000">services/common/CMakeLists.txt</text>
</g>
<!-- services/client/communication_adapter&#45;&#45;services/common/CMakeLists.txt -->
<g id="edge24" class="edge">
<title>services/client/communication_adapter&#45;&#45;services/common/CMakeLists.txt</title>
<path fill="none" stroke="#00ff00" d="M1043.9844,-528.6168C992.8707,-522.7222 932.2615,-514.526 878.1203,-504 830.6033,-494.7619 777.4927,-480.5202 738.8714,-469.4321"/>
<text text-anchor="middle" x="881.6203" y="-492.8" font-family="Times,serif" font-size="14.00" fill="#000000">4</text>
</g>
<!-- services/common/platform -->
<g id="node7" class="node">
<title>services/common/platform</title>
<ellipse fill="none" stroke="#0000ff" cx="851.1203" cy="-366" rx="106.6812" ry="18"/>
<text text-anchor="middle" x="851.1203" y="-362.3" font-family="Times,serif" font-size="14.00" fill="#000000">services/common/platform</text>
</g>
<!-- services/client/communication_adapter&#45;&#45;services/common/platform -->
<g id="edge10" class="edge">
<title>services/client/communication_adapter&#45;&#45;services/common/platform</title>
<path fill="none" stroke="#ff0000" d="M1097.1046,-523.5893C1083.0157,-518.4753 1068.5718,-512.0141 1056.1203,-504 1003.515,-470.1419 1011.9192,-435.5552 959.1203,-402 945.0251,-393.0421 928.4682,-386.0756 912.6104,-380.7618"/>
<text text-anchor="middle" x="1027.1203" y="-449.3" font-family="Times,serif" font-size="14.00" fill="#000000">26</text>
</g>
<!-- services/server/plugin_manager -->
<g id="node10" class="node">
<title>services/server/plugin_manager</title>
<ellipse fill="none" stroke="#0000ff" cx="909.1203" cy="-18" rx="122.6784" ry="18"/>
<text text-anchor="middle" x="909.1203" y="-14.3" font-family="Times,serif" font-size="14.00" fill="#000000">services/server/plugin_manager</text>
</g>
<!-- services/client/communication_adapter&#45;&#45;services/server/plugin_manager -->
<g id="edge26" class="edge">
<title>services/client/communication_adapter&#45;&#45;services/server/plugin_manager</title>
<path fill="none" stroke="#00ff00" d="M1226.6265,-523.7887C1241.5345,-518.666 1256.8509,-512.1509 1270.1203,-504 1287.794,-493.1436 1291.4827,-488.1694 1303.1203,-471 1346.9438,-406.3449 1464.9338,-207.5962 1424.1203,-141 1382.0011,-72.2734 1155.8979,-39.9858 1017.6571,-26.4652"/>
<text text-anchor="middle" x="1417.6203" y="-275.3" font-family="Times,serif" font-size="14.00" fill="#000000">4</text>
</g>
<!-- services/common/utils -->
<g id="node12" class="node">
<title>services/common/utils</title>
<ellipse fill="none" stroke="#0000ff" cx="1230.1203" cy="-192" rx="90.9839" ry="18"/>
<text text-anchor="middle" x="1230.1203" y="-188.3" font-family="Times,serif" font-size="14.00" fill="#000000">services/common/utils</text>
</g>
<!-- services/client/communication_adapter&#45;&#45;services/common/utils -->
<g id="edge16" class="edge">
<title>services/client/communication_adapter&#45;&#45;services/common/utils</title>
<path fill="none" stroke="#00ff00" d="M1171.6848,-521.8539C1174.813,-516.2981 1177.934,-510.052 1180.1203,-504 1211.928,-415.9505 1205.5651,-389.6321 1219.1203,-297 1223.5522,-266.7132 1226.8829,-231.2582 1228.6631,-210.2665"/>
<text text-anchor="middle" x="1216.6203" y="-362.3" font-family="Times,serif" font-size="14.00" fill="#000000">3</text>
</g>
<!-- services/common/protocol -->
<g id="node15" class="node">
<title>services/common/protocol</title>
<ellipse fill="none" stroke="#0000ff" cx="1060.1203" cy="-279" rx="104.7816" ry="18"/>
<text text-anchor="middle" x="1060.1203" y="-275.3" font-family="Times,serif" font-size="14.00" fill="#000000">services/common/protocol</text>
</g>
<!-- services/client/communication_adapter&#45;&#45;services/common/protocol -->
<g id="edge11" class="edge">
<title>services/client/communication_adapter&#45;&#45;services/common/protocol</title>
<path fill="none" stroke="#ff0000" d="M1162.9219,-521.9648C1168.2656,-481.0155 1175.6541,-379.5739 1130.1203,-315 1124.2925,-306.7354 1115.985,-300.2407 1107.1182,-295.1833"/>
<text text-anchor="middle" x="1172.1203" y="-405.8" font-family="Times,serif" font-size="14.00" fill="#000000">38</text>
</g>
<!-- services/server/communication_adapter -->
<g id="node16" class="node">
<title>services/server/communication_adapter</title>
<ellipse fill="none" stroke="#0000ff" cx="1158.1203" cy="-105" rx="151.3732" ry="18"/>
<text text-anchor="middle" x="1158.1203" y="-101.3" font-family="Times,serif" font-size="14.00" fill="#000000">services/server/communication_adapter</text>
</g>
<!-- services/client/communication_adapter&#45;&#45;services/server/communication_adapter -->
<g id="edge12" class="edge">
<title>services/client/communication_adapter&#45;&#45;services/server/communication_adapter</title>
<path fill="none" stroke="#ff0000" d="M1211.2485,-522.9503C1236.3809,-511.9832 1264.8959,-495.1791 1282.1203,-471 1301.5153,-443.7736 1348.8472,-201.6902 1330.1203,-174 1311.2847,-146.1492 1279.1662,-129.5385 1247.7477,-119.6322"/>
<text text-anchor="middle" x="1329.1203" y="-318.8" font-family="Times,serif" font-size="14.00" fill="#000000">64</text>
</g>
<!-- services/server/BUILD.gn -->
<g id="node17" class="node">
<title>services/server/BUILD.gn</title>
<ellipse fill="none" stroke="#0000ff" cx="770.1203" cy="-192" rx="103.1819" ry="18"/>
<text text-anchor="middle" x="770.1203" y="-188.3" font-family="Times,serif" font-size="14.00" fill="#000000">services/server/BUILD.gn</text>
</g>
<!-- services/client/communication_adapter&#45;&#45;services/server/BUILD.gn -->
<g id="edge25" class="edge">
<title>services/client/communication_adapter&#45;&#45;services/server/BUILD.gn</title>
<path fill="none" stroke="#00ff00" d="M1136.6378,-522.1097C1120.5751,-509.0994 1099.49,-490.4267 1084.1203,-471 1033.0219,-406.4138 1051.072,-362.9571 984.1203,-315 968.9278,-304.1177 962.6079,-305.7973 946.1203,-297 892.2845,-268.2748 831.5922,-230.9134 797.3914,-209.3787"/>
<text text-anchor="middle" x="1042.6203" y="-362.3" font-family="Times,serif" font-size="14.00" fill="#000000">4</text>
</g>
<!-- services/client/BUILD.gn -->
<g id="node2" class="node">
<title>services/client/BUILD.gn</title>
<ellipse fill="none" stroke="#0000ff" cx="843.1203" cy="-627" rx="101.2821" ry="18"/>
<text text-anchor="middle" x="843.1203" y="-623.3" font-family="Times,serif" font-size="14.00" fill="#000000">services/client/BUILD.gn</text>
</g>
<!-- services/client/BUILD.gn&#45;&#45;services/client/communication_adapter -->
<g id="edge17" class="edge">
<title>services/client/BUILD.gn&#45;&#45;services/client/communication_adapter</title>
<path fill="none" stroke="#00ff00" d="M898.3374,-611.8458C954.6581,-596.3887 1041.7953,-572.474 1099.8715,-556.5352"/>
<text text-anchor="middle" x="1024.6203" y="-579.8" font-family="Times,serif" font-size="14.00" fill="#000000">4</text>
</g>
<!-- services/client/BUILD.gn&#45;&#45;services/common/CMakeLists.txt -->
<g id="edge18" class="edge">
<title>services/client/BUILD.gn&#45;&#45;services/common/CMakeLists.txt</title>
<path fill="none" stroke="#00ff00" d="M826.7033,-609.0343C796.1558,-575.605 730.9277,-504.2232 700.4479,-470.868"/>
<text text-anchor="middle" x="783.6203" y="-536.3" font-family="Times,serif" font-size="14.00" fill="#000000">2</text>
</g>
<!-- services/client/BUILD.gn&#45;&#45;services/common/platform -->
<g id="edge19" class="edge">
<title>services/client/BUILD.gn&#45;&#45;services/common/platform</title>
<path fill="none" stroke="#a020f0" d="M851.7421,-608.7024C853.9467,-603.1424 856.0074,-596.9319 857.1203,-591 869.9043,-522.8554 860.1262,-504.2681 857.1203,-435 856.3695,-417.7012 854.565,-398.0315 853.1296,-384.1316"/>
<text text-anchor="middle" x="866.6203" y="-492.8" font-family="Times,serif" font-size="14.00" fill="#000000">6</text>
</g>
<!-- services/client/algorithm_sdk -->
<g id="node8" class="node">
<title>services/client/algorithm_sdk</title>
<ellipse fill="none" stroke="#0000ff" cx="552.1203" cy="-279" rx="114.2798" ry="18"/>
<text text-anchor="middle" x="552.1203" y="-275.3" font-family="Times,serif" font-size="14.00" fill="#000000">services/client/algorithm_sdk</text>
</g>
<!-- services/client/BUILD.gn&#45;&#45;services/client/algorithm_sdk -->
<g id="edge48" class="edge">
<title>services/client/BUILD.gn&#45;&#45;services/client/algorithm_sdk</title>
<path fill="none" stroke="#00ff00" d="M752.6094,-618.8548C628.3415,-606.8204 417.3165,-583.0021 392.1203,-558 372.5928,-538.623 366.9042,-460.1195 378.1203,-435 407.1505,-369.9837 478.1531,-320.7948 519.9366,-296.2885"/>
<text text-anchor="middle" x="381.6203" y="-449.3" font-family="Times,serif" font-size="14.00" fill="#000000">1</text>
</g>
<!-- services/server/plugin -->
<g id="node9" class="node">
<title>services/server/plugin</title>
<ellipse fill="none" stroke="#0000ff" cx="552.1203" cy="-105" rx="87.9851" ry="18"/>
<text text-anchor="middle" x="552.1203" y="-101.3" font-family="Times,serif" font-size="14.00" fill="#000000">services/server/plugin</text>
</g>
<!-- services/client/BUILD.gn&#45;&#45;services/server/plugin -->
<g id="edge49" class="edge">
<title>services/client/BUILD.gn&#45;&#45;services/server/plugin</title>
<path fill="none" stroke="#00ff00" d="M744.6739,-622.5127C643.9004,-617.1541 494.4548,-606.8715 439.1203,-591 407.9773,-582.0673 393.596,-583.8916 374.1203,-558 310.064,-472.8419 329.1203,-429.0604 329.1203,-322.5 329.1203,-322.5 329.1203,-322.5 329.1203,-192 329.1203,-157.7672 421.4785,-131.5636 487.3199,-117.2327"/>
<text text-anchor="middle" x="332.6203" y="-362.3" font-family="Times,serif" font-size="14.00" fill="#000000">1</text>
</g>
<!-- services/client/BUILD.gn&#45;&#45;services/server/plugin_manager -->
<g id="edge23" class="edge">
<title>services/client/BUILD.gn&#45;&#45;services/server/plugin_manager</title>
<path fill="none" stroke="#00ff00" d="M743.554,-623.3776C630.5544,-618.5143 453.573,-608.4073 389.1203,-591 338.6483,-577.3686 283.1203,-592.2803 283.1203,-540 283.1203,-540 283.1203,-540 283.1203,-105 283.1203,-54.355 608.7135,-31.5093 790.2699,-22.707"/>
<text text-anchor="middle" x="286.6203" y="-318.8" font-family="Times,serif" font-size="14.00" fill="#000000">2</text>
</g>
<!-- services/client/BUILD.gn&#45;&#45;services/common/protocol -->
<g id="edge20" class="edge">
<title>services/client/BUILD.gn&#45;&#45;services/common/protocol</title>
<path fill="none" stroke="#00ff00" d="M871.1805,-609.6964C911.8614,-583.5598 987.8401,-530.6812 1038.1203,-471 1075.9291,-426.1219 1096.6364,-405.7319 1086.1203,-348 1082.8397,-329.9904 1075.1115,-310.571 1068.928,-296.9363"/>
<text text-anchor="middle" x="1071.6203" y="-449.3" font-family="Times,serif" font-size="14.00" fill="#000000">2</text>
</g>
<!-- services/client/BUILD.gn&#45;&#45;services/server/communication_adapter -->
<g id="edge22" class="edge">
<title>services/client/BUILD.gn&#45;&#45;services/server/communication_adapter</title>
<path fill="none" stroke="#a020f0" d="M940.5599,-622.0224C1059.2337,-615.4802 1247.7157,-603.3626 1278.1203,-591 1365.1426,-555.6165 1374.1476,-507.8306 1398.1203,-417 1414.4004,-355.3159 1373.7211,-173.9959 1319.1203,-141 1306.2508,-133.2228 1276.8536,-125.7692 1246.6515,-119.682"/>
<text text-anchor="middle" x="1409.1203" y="-362.3" font-family="Times,serif" font-size="14.00" fill="#000000">14</text>
</g>
<!-- services/client/BUILD.gn&#45;&#45;services/server/BUILD.gn -->
<g id="edge21" class="edge">
<title>services/client/BUILD.gn&#45;&#45;services/server/BUILD.gn</title>
<path fill="none" stroke="#00ff00" d="M847.4904,-609.0119C855.4251,-571.5673 867.6262,-484.6143 824.1203,-435 800.949,-408.5755 773.4067,-440.3277 747.1203,-417 735.4476,-406.6412 737.828,-399.3696 735.1203,-384 723.8331,-319.932 749.1642,-243.966 762.5352,-209.9872"/>
<text text-anchor="middle" x="750.6203" y="-405.8" font-family="Times,serif" font-size="14.00" fill="#000000">3</text>
</g>
<!-- services/client/CMakeLists.txt -->
<g id="node3" class="node">
<title>services/client/CMakeLists.txt</title>
<ellipse fill="none" stroke="#0000ff" cx="137.1203" cy="-540" rx="118.0794" ry="18"/>
<text text-anchor="middle" x="137.1203" y="-536.3" font-family="Times,serif" font-size="14.00" fill="#000000">services/client/CMakeLists.txt</text>
</g>
<!-- services/client/CMakeLists.txt&#45;&#45;services/common/CMakeLists.txt -->
<g id="edge41" class="edge">
<title>services/client/CMakeLists.txt&#45;&#45;services/common/CMakeLists.txt</title>
<path fill="none" stroke="#00ff00" d="M219.0117,-526.9752C321.0892,-510.7399 494.7286,-483.1226 598.5094,-466.6163"/>
<text text-anchor="middle" x="447.6203" y="-492.8" font-family="Times,serif" font-size="14.00" fill="#000000">3</text>
</g>
<!-- services/server/CMakeLists.txt -->
<g id="node5" class="node">
<title>services/server/CMakeLists.txt</title>
<ellipse fill="none" stroke="#0000ff" cx="135.1203" cy="-366" rx="120.4791" ry="18"/>
<text text-anchor="middle" x="135.1203" y="-362.3" font-family="Times,serif" font-size="14.00" fill="#000000">services/server/CMakeLists.txt</text>
</g>
<!-- services/client/CMakeLists.txt&#45;&#45;services/server/CMakeLists.txt -->
<g id="edge42" class="edge">
<title>services/client/CMakeLists.txt&#45;&#45;services/server/CMakeLists.txt</title>
<path fill="none" stroke="#00ff00" d="M136.91,-521.7078C136.5249,-488.2024 135.7107,-417.3695 135.3277,-384.0471"/>
<text text-anchor="middle" x="140.6203" y="-449.3" font-family="Times,serif" font-size="14.00" fill="#000000">3</text>
</g>
<!-- services/common/CMakeLists.txt&#45;&#45;services/server/CMakeLists.txt -->
<g id="edge43" class="edge">
<title>services/common/CMakeLists.txt&#45;&#45;services/server/CMakeLists.txt</title>
<path fill="none" stroke="#00ff00" d="M598.339,-439.4063C494.4465,-422.9424 320.6498,-395.4009 218.0544,-379.1426"/>
<text text-anchor="middle" x="446.6203" y="-405.8" font-family="Times,serif" font-size="14.00" fill="#000000">4</text>
</g>
<!-- services/common/CMakeLists.txt&#45;&#45;services/common/platform -->
<g id="edge15" class="edge">
<title>services/common/CMakeLists.txt&#45;&#45;services/common/platform</title>
<path fill="none" stroke="#a020f0" d="M717.9152,-435.3943C747.1749,-420.1512 789.2372,-398.2385 818.2292,-383.1348"/>
<text text-anchor="middle" x="781.6203" y="-405.8" font-family="Times,serif" font-size="14.00" fill="#000000">8</text>
</g>
<!-- services/common/CMakeLists.txt&#45;&#45;services/server/plugin_manager -->
<g id="edge30" class="edge">
<title>services/common/CMakeLists.txt&#45;&#45;services/server/plugin_manager</title>
<path fill="none" stroke="#00ff00" d="M627.6256,-436.6742C566.2439,-415.5639 471.3072,-372.2636 429.1203,-297 399.3066,-243.8109 346.4523,-195.94 455.1203,-87 479.4362,-62.6232 677.6692,-39.7256 804.0266,-27.4111"/>
<text text-anchor="middle" x="401.6203" y="-231.8" font-family="Times,serif" font-size="14.00" fill="#000000">2</text>
</g>
<!-- services/common/CMakeLists.txt&#45;&#45;services/common/protocol -->
<g id="edge27" class="edge">
<title>services/common/CMakeLists.txt&#45;&#45;services/common/protocol</title>
<path fill="none" stroke="#00ff00" d="M744.8104,-436.9171C784.3865,-426.5795 837.2114,-413.0636 884.1203,-402 920.8587,-393.3352 934.5475,-403.0738 967.1203,-384 986.3478,-372.7408 1025.6091,-323.9236 1046.4369,-296.998"/>
<text text-anchor="middle" x="1008.6203" y="-362.3" font-family="Times,serif" font-size="14.00" fill="#000000">2</text>
</g>
<!-- services/common/CMakeLists.txt&#45;&#45;services/server/communication_adapter -->
<g id="edge29" class="edge">
<title>services/common/CMakeLists.txt&#45;&#45;services/server/communication_adapter</title>
<path fill="none" stroke="#a020f0" d="M761.207,-438.4094C794.1799,-432.0412 833.0796,-424.3595 868.1203,-417 933.6499,-403.2369 958.5776,-419.8676 1015.1203,-384 1032.2367,-373.1423 1026.8681,-360.1133 1043.1203,-348 1093.2154,-310.6626 1138.854,-348.5742 1174.1203,-297 1191.5189,-271.5558 1186.1046,-252.2841 1167.1203,-228 1155.8573,-213.5929 1139.8188,-225.5035 1130.1203,-210 1113.0107,-182.6496 1131.2515,-144.9885 1145.2508,-122.9944"/>
<text text-anchor="middle" x="1192.1203" y="-275.3" font-family="Times,serif" font-size="14.00" fill="#000000">14</text>
</g>
<!-- services/common/CMakeLists.txt&#45;&#45;services/server/BUILD.gn -->
<g id="edge28" class="edge">
<title>services/common/CMakeLists.txt&#45;&#45;services/server/BUILD.gn</title>
<path fill="none" stroke="#00ff00" d="M680.727,-434.7415C674.1616,-393.766 663.9827,-292.9987 708.1203,-228 713.5043,-220.0712 721.2587,-213.6552 729.4703,-208.5592"/>
<text text-anchor="middle" x="681.6203" y="-318.8" font-family="Times,serif" font-size="14.00" fill="#000000">2</text>
</g>
<!-- .gitee/PULL_REQUEST_TEMPLATE.zh&#45;CN.md -->
<g id="node6" class="node">
<title>.gitee/PULL_REQUEST_TEMPLATE.zh&#45;CN.md</title>
<ellipse fill="none" stroke="#0000ff" cx="1685.1203" cy="-540" rx="189.2665" ry="18"/>
<text text-anchor="middle" x="1685.1203" y="-536.3" font-family="Times,serif" font-size="14.00" fill="#000000">.gitee/PULL_REQUEST_TEMPLATE.zh&#45;CN.md</text>
</g>
<!-- services/common/platform&#45;&#45;services/server/plugin -->
<g id="edge45" class="edge">
<title>services/common/platform&#45;&#45;services/server/plugin</title>
<path fill="none" stroke="#ff0000" d="M830.7497,-348.2103C799.7405,-321.3511 738.5438,-269.2078 684.1203,-228 672.9153,-219.5159 668.932,-218.9798 658.1203,-210 624.2455,-181.8648 588.6169,-144.7939 568.5018,-123.062"/>
<text text-anchor="middle" x="709.1203" y="-231.8" font-family="Times,serif" font-size="14.00" fill="#000000">56</text>
</g>
<!-- services/common/platform&#45;&#45;services/server/plugin_manager -->
<g id="edge32" class="edge">
<title>services/common/platform&#45;&#45;services/server/plugin_manager</title>
<path fill="none" stroke="#a020f0" d="M855.0821,-347.8089C861.3286,-318.7671 873.6279,-260.093 882.1203,-210 892.9229,-146.2795 902.7091,-70.1398 906.927,-36.0524"/>
<text text-anchor="middle" x="891.6203" y="-188.3" font-family="Times,serif" font-size="14.00" fill="#000000">6</text>
</g>
<!-- services/common/platform&#45;&#45;services/common/protocol -->
<g id="edge13" class="edge">
<title>services/common/platform&#45;&#45;services/common/protocol</title>
<path fill="none" stroke="#ff0000" d="M887.9418,-349.0897C910.4063,-338.9182 939.7758,-325.8778 966.1203,-315 982.2728,-308.3305 1000.1494,-301.3784 1015.9385,-295.3822"/>
<text text-anchor="middle" x="973.1203" y="-318.8" font-family="Times,serif" font-size="14.00" fill="#000000">22</text>
</g>
<!-- services/common/platform&#45;&#45;services/server/communication_adapter -->
<g id="edge14" class="edge">
<title>services/common/platform&#45;&#45;services/server/communication_adapter</title>
<path fill="none" stroke="#ff0000" d="M858.4356,-347.968C870.6487,-319.6188 897.5094,-264.1382 934.1203,-228 985.2712,-177.5093 1061.3854,-141.6654 1110.3853,-122.1499"/>
<text text-anchor="middle" x="941.1203" y="-231.8" font-family="Times,serif" font-size="14.00" fill="#000000">52</text>
</g>
<!-- services/common/platform&#45;&#45;services/server/BUILD.gn -->
<g id="edge31" class="edge">
<title>services/common/platform&#45;&#45;services/server/BUILD.gn</title>
<path fill="none" stroke="#a020f0" d="M842.7569,-348.0343C827.2354,-314.6918 794.138,-243.5937 778.5594,-210.1286"/>
<text text-anchor="middle" x="822.6203" y="-275.3" font-family="Times,serif" font-size="14.00" fill="#000000">6</text>
</g>
<!-- services/client/algorithm_sdk&#45;&#45;services/server/plugin -->
<g id="edge51" class="edge">
<title>services/client/algorithm_sdk&#45;&#45;services/server/plugin</title>
<path fill="none" stroke="#ff0000" d="M552.1203,-260.7078C552.1203,-227.2024 552.1203,-156.3695 552.1203,-123.0471"/>
<text text-anchor="middle" x="559.1203" y="-188.3" font-family="Times,serif" font-size="14.00" fill="#000000">49</text>
</g>
<!-- services/client/algorithm_sdk&#45;&#45;services/server/BUILD.gn -->
<g id="edge50" class="edge">
<title>services/client/algorithm_sdk&#45;&#45;services/server/BUILD.gn</title>
<path fill="none" stroke="#00ff00" d="M591.1784,-262.029C614.7951,-251.8946 645.5673,-238.9136 673.1203,-228 689.9876,-221.319 708.6441,-214.3061 725.0524,-208.2632"/>
<text text-anchor="middle" x="676.6203" y="-231.8" font-family="Times,serif" font-size="14.00" fill="#000000">1</text>
</g>
<!-- interfaces/kits/asr -->
<g id="node11" class="node">
<title>interfaces/kits/asr</title>
<ellipse fill="none" stroke="#0000ff" cx="1923.1203" cy="-627" rx="72.5877" ry="18"/>
<text text-anchor="middle" x="1923.1203" y="-623.3" font-family="Times,serif" font-size="14.00" fill="#000000">interfaces/kits/asr</text>
</g>
<!-- services/common/utils&#45;&#45;services/server/communication_adapter -->
<g id="edge7" class="edge">
<title>services/common/utils&#45;&#45;services/server/communication_adapter</title>
<path fill="none" stroke="#00ff00" d="M1215.2018,-173.9735C1202.8448,-159.0422 1185.3713,-137.9283 1173.0196,-123.0034"/>
<text text-anchor="middle" x="1202.6203" y="-144.8" font-family="Times,serif" font-size="14.00" fill="#000000">3</text>
</g>
<!-- README_zh.md -->
<g id="node13" class="node">
<title>README_zh.md</title>
<ellipse fill="none" stroke="#0000ff" cx="2076.1203" cy="-540" rx="75.2868" ry="18"/>
<text text-anchor="middle" x="2076.1203" y="-536.3" font-family="Times,serif" font-size="14.00" fill="#000000">README_zh.md</text>
</g>
<!-- CMakeLists.txt -->
<g id="node14" class="node">
<title>CMakeLists.txt</title>
<ellipse fill="none" stroke="#0000ff" cx="137.1203" cy="-627" rx="65.7887" ry="18"/>
<text text-anchor="middle" x="137.1203" y="-623.3" font-family="Times,serif" font-size="14.00" fill="#000000">CMakeLists.txt</text>
</g>
<!-- CMakeLists.txt&#45;&#45;services/client/CMakeLists.txt -->
<g id="edge38" class="edge">
<title>CMakeLists.txt&#45;&#45;services/client/CMakeLists.txt</title>
<path fill="none" stroke="#00ff00" d="M137.1203,-608.9735C137.1203,-594.0422 137.1203,-572.9283 137.1203,-558.0034"/>
<text text-anchor="middle" x="140.6203" y="-579.8" font-family="Times,serif" font-size="14.00" fill="#000000">2</text>
</g>
<!-- CMakeLists.txt&#45;&#45;services/common/CMakeLists.txt -->
<g id="edge39" class="edge">
<title>CMakeLists.txt&#45;&#45;services/common/CMakeLists.txt</title>
<path fill="none" stroke="#00ff00" d="M180.0424,-613.3465C279.2736,-581.7812 524.2858,-503.8431 631.9503,-469.5952"/>
<text text-anchor="middle" x="468.6203" y="-536.3" font-family="Times,serif" font-size="14.00" fill="#000000">2</text>
</g>
<!-- CMakeLists.txt&#45;&#45;services/server/CMakeLists.txt -->
<g id="edge40" class="edge">
<title>CMakeLists.txt&#45;&#45;services/server/CMakeLists.txt</title>
<path fill="none" stroke="#00ff00" d="M89.4734,-614.4999C61.0454,-604.3185 27.244,-586.7913 10.1203,-558 -28.9174,-492.3633 60.9139,-417.1817 108.2694,-383.6931"/>
<text text-anchor="middle" x="12.6203" y="-492.8" font-family="Times,serif" font-size="14.00" fill="#000000">2</text>
</g>
<!-- services/common/protocol&#45;&#45;services/server/plugin_manager -->
<g id="edge34" class="edge">
<title>services/common/protocol&#45;&#45;services/server/plugin_manager</title>
<path fill="none" stroke="#a020f0" d="M1049.7414,-261.0604C1022.1561,-213.3798 947.2399,-83.889 919.5717,-36.0651"/>
<text text-anchor="middle" x="991.6203" y="-144.8" font-family="Times,serif" font-size="14.00" fill="#000000">5</text>
</g>
<!-- services/common/protocol&#45;&#45;services/common/utils -->
<g id="edge5" class="edge">
<title>services/common/protocol&#45;&#45;services/common/utils</title>
<path fill="none" stroke="#a020f0" d="M1093.7068,-261.8116C1123.7036,-246.4603 1167.3843,-224.106 1197.182,-208.8567"/>
<text text-anchor="middle" x="1159.6203" y="-231.8" font-family="Times,serif" font-size="14.00" fill="#000000">9</text>
</g>
<!-- services/common/protocol&#45;&#45;services/server/communication_adapter -->
<g id="edge6" class="edge">
<title>services/common/protocol&#45;&#45;services/server/communication_adapter</title>
<path fill="none" stroke="#ff0000" d="M1060.1173,-260.5388C1061.0887,-231.6015 1067.0451,-175.3297 1097.1203,-141 1103.4408,-133.7854 1111.5726,-127.6251 1119.8253,-122.5465"/>
<text text-anchor="middle" x="1084.1203" y="-188.3" font-family="Times,serif" font-size="14.00" fill="#000000">44</text>
</g>
<!-- services/common/protocol&#45;&#45;services/server/BUILD.gn -->
<g id="edge33" class="edge">
<title>services/common/protocol&#45;&#45;services/server/BUILD.gn</title>
<path fill="none" stroke="#00ff00" d="M1018.6736,-262.288C1005.2422,-256.5383 990.3909,-249.8219 977.1203,-243 965.5961,-237.0759 964.2111,-232.6597 952.1203,-228 932.735,-220.5291 886.6727,-211.4463 845.7412,-204.2731"/>
<text text-anchor="middle" x="980.6203" y="-231.8" font-family="Times,serif" font-size="14.00" fill="#000000">2</text>
</g>
<!-- services/server/communication_adapter&#45;&#45;services/server/plugin_manager -->
<g id="edge37" class="edge">
<title>services/server/communication_adapter&#45;&#45;services/server/plugin_manager</title>
<path fill="none" stroke="#a020f0" d="M1109.223,-87.9154C1065.0339,-72.4758 1000.3945,-49.891 956.6377,-34.6025"/>
<text text-anchor="middle" x="1056.1203" y="-57.8" font-family="Times,serif" font-size="14.00" fill="#000000">14</text>
</g>
<!-- services/server/BUILD.gn&#45;&#45;services/server/plugin -->
<g id="edge52" class="edge">
<title>services/server/BUILD.gn&#45;&#45;services/server/plugin</title>
<path fill="none" stroke="#00ff00" d="M733.2441,-175.1516C710.3457,-164.8831 680.2151,-151.7195 653.1203,-141 635.118,-133.8778 615.0737,-126.601 597.6175,-120.4707"/>
<text text-anchor="middle" x="692.6203" y="-144.8" font-family="Times,serif" font-size="14.00" fill="#000000">1</text>
</g>
<!-- services/server/BUILD.gn&#45;&#45;services/server/plugin_manager -->
<g id="edge36" class="edge">
<title>services/server/BUILD.gn&#45;&#45;services/server/plugin_manager</title>
<path fill="none" stroke="#00ff00" d="M784.4722,-174.0343C811.1079,-140.6918 867.9046,-69.5937 894.6382,-36.1286"/>
<text text-anchor="middle" x="857.6203" y="-101.3" font-family="Times,serif" font-size="14.00" fill="#000000">2</text>
</g>
<!-- services/server/BUILD.gn&#45;&#45;services/server/communication_adapter -->
<g id="edge35" class="edge">
<title>services/server/BUILD.gn&#45;&#45;services/server/communication_adapter</title>
<path fill="none" stroke="#a020f0" d="M818.5477,-176.0162C853.0066,-165.0639 900.5528,-150.8005 943.1203,-141 981.2001,-132.2328 1023.5366,-124.6815 1060.5019,-118.7915"/>
<text text-anchor="middle" x="950.1203" y="-144.8" font-family="Times,serif" font-size="14.00" fill="#000000">14</text>
</g>
<!-- interfaces/kits/cv -->
<g id="node18" class="node">
<title>interfaces/kits/cv</title>
<ellipse fill="none" stroke="#0000ff" cx="465.1203" cy="-453" rx="70.6878" ry="18"/>
<text text-anchor="middle" x="465.1203" y="-449.3" font-family="Times,serif" font-size="14.00" fill="#000000">interfaces/kits/cv</text>
</g>
<!-- interfaces/kits/cv&#45;&#45;services/common/platform -->
<g id="edge46" class="edge">
<title>interfaces/kits/cv&#45;&#45;services/common/platform</title>
<path fill="none" stroke="#a020f0" d="M518.2338,-440.8756C526.885,-438.9073 535.7511,-436.8939 544.1203,-435 627.9045,-416.0395 724.5935,-394.3377 786.7207,-380.4164"/>
<text text-anchor="middle" x="690.6203" y="-405.8" font-family="Times,serif" font-size="14.00" fill="#000000">8</text>
</g>
<!-- interfaces/kits/cv&#45;&#45;services/server/plugin -->
<g id="edge47" class="edge">
<title>interfaces/kits/cv&#45;&#45;services/server/plugin</title>
<path fill="none" stroke="#a020f0" d="M450.0389,-435.3363C418.725,-396.3941 352.5848,-300.8363 390.1203,-228 416.6498,-176.5203 475.6732,-140.5197 514.67,-121.2929"/>
<text text-anchor="middle" x="384.6203" y="-275.3" font-family="Times,serif" font-size="14.00" fill="#000000">6</text>
</g>
<!-- services/client/client_executor -->
<g id="node19" class="node">
<title>services/client/client_executor</title>
<ellipse fill="none" stroke="#0000ff" cx="1337.1203" cy="-627" rx="117.7793" ry="18"/>
<text text-anchor="middle" x="1337.1203" y="-623.3" font-family="Times,serif" font-size="14.00" fill="#000000">services/client/client_executor</text>
</g>
<!-- services/client/client_executor&#45;&#45;services/client/communication_adapter -->
<g id="edge8" class="edge">
<title>services/client/client_executor&#45;&#45;services/client/communication_adapter</title>
<path fill="none" stroke="#ff0000" d="M1302.1508,-609.8116C1271.4225,-594.7079 1226.9028,-572.8253 1195.9272,-557.6"/>
<text text-anchor="middle" x="1267.1203" y="-579.8" font-family="Times,serif" font-size="14.00" fill="#000000">24</text>
</g>
<!-- services/client/client_executor&#45;&#45;services/common/platform -->
<g id="edge9" class="edge">
<title>services/client/client_executor&#45;&#45;services/common/platform</title>
<path fill="none" stroke="#00ff00" d="M1228.0466,-620.1941C1135.8505,-613.6699 1015.7017,-603.0529 996.1203,-591 975.3433,-578.2112 891.0812,-434.9987 861.4704,-383.9446"/>
<text text-anchor="middle" x="936.6203" y="-492.8" font-family="Times,serif" font-size="14.00" fill="#000000">4</text>
</g>
<!-- services/client/client_executor&#45;&#45;services/common/utils -->
<g id="edge3" class="edge">
<title>services/client/client_executor&#45;&#45;services/common/utils</title>
<path fill="none" stroke="#00ff00" d="M1355.8928,-609.0468C1367.9542,-596.1472 1382.5516,-577.6302 1389.1203,-558 1412.807,-487.213 1408.8124,-448.5184 1339.1203,-315 1316.6757,-272 1275.9736,-231.869 1251.1598,-209.7586"/>
<text text-anchor="middle" x="1390.6203" y="-405.8" font-family="Times,serif" font-size="14.00" fill="#000000">4</text>
</g>
<!-- services/client/client_executor&#45;&#45;services/common/protocol -->
<g id="edge2" class="edge">
<title>services/client/client_executor&#45;&#45;services/common/protocol</title>
<path fill="none" stroke="#ff0000" d="M1335.5781,-608.7197C1333.3811,-587.4116 1328.4159,-551.3701 1318.1203,-522 1289.043,-439.0522 1288.7323,-407.5912 1224.1203,-348 1195.2828,-321.4034 1154.6956,-304.2141 1121.1138,-293.644"/>
<text text-anchor="middle" x="1309.1203" y="-449.3" font-family="Times,serif" font-size="14.00" fill="#000000">22</text>
</g>
<!-- services/client/client_executor&#45;&#45;services/server/communication_adapter -->
<g id="edge4" class="edge">
<title>services/client/client_executor&#45;&#45;services/server/communication_adapter</title>
<path fill="none" stroke="#a020f0" d="M1398.0182,-611.4825C1432.228,-598.7062 1468.1203,-576.5843 1468.1203,-540 1468.1203,-540 1468.1203,-540 1468.1203,-322.5 1468.1203,-236.5126 1467.8667,-195.2101 1401.1203,-141 1383.7402,-126.8843 1339.7378,-118.2917 1293.8755,-113.0661"/>
<text text-anchor="middle" x="1475.1203" y="-362.3" font-family="Times,serif" font-size="14.00" fill="#000000">12</text>
</g>
<!-- .gitee/ISSUE_TEMPLATE.zh&#45;CN.md -->
<g id="node20" class="node">
<title>.gitee/ISSUE_TEMPLATE.zh&#45;CN.md</title>
<ellipse fill="none" stroke="#0000ff" cx="1685.1203" cy="-627" rx="147.5738" ry="18"/>
<text text-anchor="middle" x="1685.1203" y="-623.3" font-family="Times,serif" font-size="14.00" fill="#000000">.gitee/ISSUE_TEMPLATE.zh&#45;CN.md</text>
</g>
<!-- .gitee/ISSUE_TEMPLATE.zh&#45;CN.md&#45;&#45;.gitee/PULL_REQUEST_TEMPLATE.zh&#45;CN.md -->
<g id="edge44" class="edge">
<title>.gitee/ISSUE_TEMPLATE.zh&#45;CN.md&#45;&#45;.gitee/PULL_REQUEST_TEMPLATE.zh&#45;CN.md</title>
<path fill="none" stroke="#00ff00" d="M1685.1203,-608.9735C1685.1203,-594.0422 1685.1203,-572.9283 1685.1203,-558.0034"/>
<text text-anchor="middle" x="1688.6203" y="-579.8" font-family="Times,serif" font-size="14.00" fill="#000000">2</text>
</g>
<!-- README.md -->
<g id="node21" class="node">
<title>README.md</title>
<ellipse fill="none" stroke="#0000ff" cx="2076.1203" cy="-627" rx="62.2891" ry="18"/>
<text text-anchor="middle" x="2076.1203" y="-623.3" font-family="Times,serif" font-size="14.00" fill="#000000">README.md</text>
</g>
<!-- README.md&#45;&#45;README_zh.md -->
<g id="edge1" class="edge">
<title>README.md&#45;&#45;README_zh.md</title>
<path fill="none" stroke="#a020f0" d="M2076.1203,-608.9735C2076.1203,-594.0422 2076.1203,-572.9283 2076.1203,-558.0034"/>
<text text-anchor="middle" x="2079.6203" y="-579.8" font-family="Times,serif" font-size="14.00" fill="#000000">5</text>
</g>
</g>
</svg>
